<svg width="40" height="40" viewBox="0 0 40 40" fill="none" xmlns="http://www.w3.org/2000/svg">
<rect width="40" height="40" rx="20" fill="white"/>
<path d="M27.15 15.275C27.15 16.062 26.512 16.7 25.725 16.7C24.938 16.7 24.3 16.062 24.3 15.275C24.3 14.488 24.938 13.85 25.725 13.85C26.512 13.85 27.15 14.488 27.15 15.275Z" fill="url(#paint0_linear_1_222)"/>
<path fill-rule="evenodd" clip-rule="evenodd" d="M20.5 25.25C23.1234 25.25 25.25 23.1234 25.25 20.5C25.25 17.8766 23.1234 15.75 20.5 15.75C17.8766 15.75 15.75 17.8766 15.75 20.5C15.75 23.1234 17.8766 25.25 20.5 25.25ZM20.5 23.35C22.074 23.35 23.35 22.074 23.35 20.5C23.35 18.926 22.074 17.65 20.5 17.65C18.926 17.65 17.65 18.926 17.65 20.5C17.65 22.074 18.926 23.35 20.5 23.35Z" fill="url(#paint1_linear_1_222)"/>
<path fill-rule="evenodd" clip-rule="evenodd" d="M11 20.12C11 16.9277 11 15.3316 11.6213 14.1123C12.1677 13.0397 13.0397 12.1677 14.1123 11.6213C15.3316 11 16.9277 11 20.12 11H20.88C24.0723 11 25.6684 11 26.8877 11.6213C27.9603 12.1677 28.8323 13.0397 29.3787 14.1123C30 15.3316 30 16.9277 30 20.12V20.88C30 24.0723 30 25.6684 29.3787 26.8877C28.8323 27.9603 27.9603 28.8323 26.8877 29.3787C25.6684 30 24.0723 30 20.88 30H20.12C16.9277 30 15.3316 30 14.1123 29.3787C13.0397 28.8323 12.1677 27.9603 11.6213 26.8877C11 25.6684 11 24.0723 11 20.88V20.12ZM20.12 12.9H20.88C22.5075 12.9 23.6139 12.9015 24.469 12.9713C25.302 13.0394 25.728 13.1628 26.0252 13.3142C26.7402 13.6785 27.3215 14.2598 27.6858 14.9748C27.8372 15.272 27.9606 15.698 28.0287 16.531C28.0985 17.3861 28.1 18.4925 28.1 20.12V20.88C28.1 22.5075 28.0985 23.6139 28.0287 24.469C27.9606 25.302 27.8372 25.728 27.6858 26.0252C27.3215 26.7402 26.7402 27.3215 26.0252 27.6858C25.728 27.8372 25.302 27.9606 24.469 28.0287C23.6139 28.0985 22.5075 28.1 20.88 28.1H20.12C18.4925 28.1 17.3861 28.0985 16.531 28.0287C15.698 27.9606 15.272 27.8372 14.9748 27.6858C14.2598 27.3215 13.6785 26.7402 13.3142 26.0252C13.1628 25.728 13.0394 25.302 12.9713 24.469C12.9015 23.6139 12.9 22.5075 12.9 20.88V20.12C12.9 18.4925 12.9015 17.3861 12.9713 16.531C13.0394 15.698 13.1628 15.272 13.3142 14.9748C13.6785 14.2598 14.2598 13.6785 14.9748 13.3142C15.272 13.1628 15.698 13.0394 16.531 12.9713C17.3861 12.9015 18.4925 12.9 20.12 12.9Z" fill="url(#paint2_linear_1_222)"/>
<defs>
<linearGradient id="paint0_linear_1_222" x1="20.5" y1="11" x2="20.5" y2="30" gradientUnits="userSpaceOnUse">
<stop offset="0.0625" stop-color="#D82D7E"/>
<stop offset="1" stop-color="#FBA756"/>
</linearGradient>
<linearGradient id="paint1_linear_1_222" x1="20.5" y1="11" x2="20.5" y2="30" gradientUnits="userSpaceOnUse">
<stop offset="0.0625" stop-color="#D82D7E"/>
<stop offset="1" stop-color="#FBA756"/>
</linearGradient>
<linearGradient id="paint2_linear_1_222" x1="20.5" y1="11" x2="20.5" y2="30" gradientUnits="userSpaceOnUse">
<stop offset="0.0625" stop-color="#D82D7E"/>
<stop offset="1" stop-color="#FBA756"/>
</linearGradient>
</defs>
</svg>
