<svg width="40" height="40" viewBox="0 0 40 40" fill="none" xmlns="http://www.w3.org/2000/svg">
<rect width="40" height="40" rx="20" fill="white"/>
<path d="M16.9638 27C14.7686 27 12.7223 26.4273 11 25.4391C12.4623 25.524 15.043 25.3207 16.6481 23.9473C14.2334 23.8479 13.1445 22.1866 13.0024 21.4767C13.2076 21.5477 14.1861 21.6329 14.7385 21.4341C11.9608 20.8093 11.5347 18.6227 11.6294 17.9554C12.1502 18.2819 13.034 18.3955 13.3812 18.3671C10.7929 16.7059 11.7241 14.2069 12.1817 13.6673C14.0392 15.9757 16.823 17.2722 20.2668 17.3443C20.2019 17.0888 20.1676 16.8229 20.1676 16.5497C20.1676 14.5893 21.9341 13 24.1132 13C25.2517 13 26.2776 13.4339 26.9978 14.1278C27.7586 13.9679 28.9036 13.5935 29.4634 13.2698C29.1813 14.1785 28.3028 14.9366 27.7715 15.2175C27.7672 15.2079 27.7759 15.2271 27.7715 15.2175C28.2382 15.1542 29.5011 14.9365 30 14.6329C29.7533 15.1434 28.822 15.9922 28.0577 16.4674C28.1999 22.0927 23.4019 27 16.9638 27Z" fill="#58A7DE"/>
</svg>
